<?xml version="1.0" encoding="utf-8"?>
<!-- Generator: Adobe Illustrator 16.0.0, SVG Export Plug-In . SVG Version: 6.00 Build 0)  -->
<!DOCTYPE svg PUBLIC "-//W3C//DTD SVG 1.1//EN" "http://www.w3.org/Graphics/SVG/1.1/DTD/svg11.dtd">
<svg version="1.1"
	 id="Layer_1" xmlns:dc="http://purl.org/dc/elements/1.1/" xmlns:cc="http://creativecommons.org/ns#" xmlns:rdf="http://www.w3.org/1999/02/22-rdf-syntax-ns#" xmlns:svg="http://www.w3.org/2000/svg" xmlns:sodipodi="http://sodipodi.sourceforge.net/DTD/sodipodi-0.dtd" xmlns:inkscape="http://www.inkscape.org/namespaces/inkscape" sodipodi:docname="cow_mailcow.svg" inkscape:version="0.91 r13725"
	 xmlns="http://www.w3.org/2000/svg" xmlns:xlink="http://www.w3.org/1999/xlink" x="0px" y="0px" width="446.226px"
	 height="396.025px" viewBox="0 0 446.226 396.025" enable-background="new 0 0 446.226 396.025" xml:space="preserve">
<sodipodi:namedview  fit-margin-left="0" fit-margin-top="0" inkscape:cy="233.97883" inkscape:cx="261.00704" inkscape:zoom="1.1125147" showgrid="false" guidetolerance="10" gridtolerance="10" objecttolerance="10" borderopacity="1" pagecolor="#ffffff" bordercolor="#666666" id="namedview140" fit-margin-bottom="0" fit-margin-right="0" inkscape:current-layer="Layer_1" inkscape:window-maximized="0" inkscape:window-y="0" inkscape:window-x="814" inkscape:window-height="1138" inkscape:window-width="1097" inkscape:pageshadow="2" inkscape:pageopacity="0">
	</sodipodi:namedview>
<g id="g3" transform="translate(-576.88698,-401.988)">
	<g id="g5">
		<g id="g7">
			<path id="path26" inkscape:connector-curvature="0" opacity="0.1" fill="#3D5263" enable-background="new    " d="
				M797.147,465.123c-91.318,0-165.349,74.032-165.349,165.349c0,91.318,74.031,165.348,165.349,165.348
				c91.321,0,165.347-74.029,165.347-165.348C962.494,539.156,888.469,465.123,797.147,465.123L797.147,465.123z M780.697,761.791
				c-72.905,0-132.009-60.315-132.009-134.721c0-74.403,59.104-134.719,132.009-134.719c72.906,0,132.007,60.318,132.007,134.719
				C912.703,701.475,853.603,761.791,780.697,761.791z"/>
			<g id="g28">
				<g id="g30">
					<polyline id="polyline32" fill="#3D5263" points="669.531,528.738 644.931,594.448 663.214,684.265 698.898,720.398 					"/>
					<g id="g34">
						<g id="g36">
							<polyline id="polyline38" fill="#FEF3DF" points="624.288,471.4 645.267,521.278 673.235,534.795 714.775,482.294 							"/>
							<g id="g40">
								<path id="path42" inkscape:connector-curvature="0" fill="#B58765" d="M696.337,502.201c0,0-30.919-35.149-68.482-26.098
									c0,0,6.418,46.924,63.745,60.542l3.591,11.736c0,0-90.242-13.326-81.613-92.964c0,0,67.402-27.348,99.847,20.775"/>
								<polyline id="polyline44" fill="#FEF3DF" points="970.122,471.4 949.147,521.278 921.18,534.795 879.635,482.294 								
									"/>
								<path id="path46" inkscape:connector-curvature="0" fill="#B58765" d="M898.077,502.201c0,0,30.918-35.149,68.477-26.098
									c0,0-6.415,46.924-63.742,60.542l-3.594,11.736c0,0,90.239-13.326,81.612-92.964c0,0-67.403-27.348-99.853,20.775"/>
							</g>
						</g>
						<path id="path48" sodipodi:nodetypes="cccscccccc" inkscape:connector-curvature="0" fill="#B58765" d="M718.323,741.323
							h76.945l22.563-281.693c-76.766,0-154.616,41.285-154.616,107.076c0,1.999,0.117,3.832,0.167,5.742
							c0.176,5.41,0.616,10.433,1.177,15.313c2.323,20.378,7.496,37.378,11.638,59.667c1.997,10.772,6.878,32.149,6.878,32.149
							c0.078,0.561,0.227,1.104,0.309,1.666C686.87,703.999,699.656,725.29,718.323,741.323z"/>
						<path id="path50" inkscape:connector-curvature="0" fill="#B58765" d="M794.482,447.577v293.745h76.94
							c18.668-16.033,31.452-37.323,34.943-60.082c0.08-0.56,0.226-1.104,0.304-1.665c0,0,4.881-21.377,6.879-32.147
							c4.143-22.29,9.318-39.29,11.642-59.665c0.559-4.884,0.998-9.906,1.163-15.317c0.059-1.909,0.176-3.743,0.176-5.742
							C926.529,500.915,871.252,447.577,794.482,447.577L794.482,447.577z"/>
						<g id="g52">
							<g id="g54">
								<path id="path56" inkscape:connector-curvature="0" fill="#FEF3DF" d="M903.067,695.161
									c0,38.949-48.26,70.539-107.805,70.539c-59.551,0-107.811-31.59-107.811-70.539c0-38.96,48.259-70.542,107.811-70.542
									C854.807,624.619,903.067,656.201,903.067,695.161z"/>
							</g>
						</g>
						<g id="g58">
							<g id="g60">
								<g id="g62">
									<path id="path64" inkscape:connector-curvature="0" fill="#5A3620" d="M746.415,684.265
										c0,8.549-6.933,15.482-15.489,15.482c-8.542,0-15.478-6.934-15.478-15.482c0-8.558,6.936-15.48,15.478-15.48
										C739.481,668.785,746.415,675.708,746.415,684.265z"/>
								</g>
							</g>
							<g id="g66">
								<g id="g68">
									<path id="path70" inkscape:connector-curvature="0" fill="#5A3620" d="M875.44,684.265c0,8.549-6.929,15.482-15.481,15.482
										c-8.554,0-15.487-6.934-15.487-15.482c0-8.558,6.934-15.48,15.487-15.48C868.511,668.785,875.44,675.708,875.44,684.265z"
										/>
								</g>
							</g>
						</g>
						<g id="g72">
							<path id="path74" inkscape:connector-curvature="0" fill="#87654A" d="M924.969,574.586c0.485-4.281,0.87-8.68,1.021-13.416
								c0.049-1.675,0.15-3.279,0.15-5.035c0-56.094-45.896-101.836-110.355-104.218l-10.087,0.007c-0.004,0-0.004,0-0.01,0
								c-0.01,0.023-39.379,121.611,105.333,192.917c1.297-5.938,2.854-13.182,3.751-18.001
								C918.404,607.318,922.936,592.428,924.969,574.586L924.969,574.586z"/>
						</g>
						<g id="g76">
							<g id="g78">
								<g id="g80">
									<g id="g82">
										<path id="path84" inkscape:connector-curvature="0" fill="#5A3620" d="M879.635,566.121
											c0,9.579-7.769,17.346-17.354,17.346c-9.576,0-17.348-7.765-17.348-17.346c0-9.585,7.771-17.348,17.348-17.348
											C871.867,548.773,879.635,556.536,879.635,566.121z"/>
									</g>
								</g>
							</g>
							<g id="g86">
								<g id="g88">
									<g id="g90">
										<path id="path92" inkscape:connector-curvature="0" fill="#5A3620" d="M753.269,566.121
											c0,9.579-7.77,17.346-17.345,17.346c-9.586,0-17.347-7.765-17.347-17.346c0-9.585,7.759-17.348,17.347-17.348
											C745.502,548.773,753.269,556.536,753.269,566.121z"/>
									</g>
								</g>
							</g>
							<g id="g94">
								<g id="g96">
									<path id="path98" inkscape:connector-curvature="0" fill="#FFFFFF" d="M748.76,560.912c0,3.519-2.849,6.368-6.368,6.368
										c-3.519,0-6.371-2.85-6.371-6.368c0-3.509,2.854-6.362,6.371-6.362C745.912,554.551,748.76,557.402,748.76,560.912z"/>
								</g>
							</g>
							<g id="g100">
								<g id="g102">
									<path id="path104" inkscape:connector-curvature="0" fill="#FFFFFF" d="M873.949,560.912c0,3.519-2.853,6.368-6.366,6.368
										c-3.52,0-6.371-2.85-6.371-6.368c0-3.509,2.852-6.362,6.371-6.362C871.096,554.551,873.949,557.402,873.949,560.912z"/>
								</g>
							</g>
						</g>
					</g>
					<path id="path106" inkscape:connector-curvature="0" fill="#FEF3DF" d="M729.241,461.517c0,0-25.082-34.657,0-57.266
						c0,0,18.05,44.028,55.347,43.326"/>
					<path id="path108" inkscape:connector-curvature="0" fill="#FEF3DF" d="M866.694,461.517c0,0,25.079-34.657,0-57.266
						c0,0-18.056,44.028-55.349,43.326"/>
					<path id="path110" inkscape:connector-curvature="0" fill="#F1F2F2" d="M800.356,445.481
						c-91.318,0-165.35,74.031-165.35,165.35c0,91.317,74.032,165.346,165.35,165.346c91.319,0,165.35-74.028,165.35-165.346
						S891.675,445.481,800.356,445.481z M783.906,742.148c-72.906,0-132.009-60.315-132.009-134.721
						c0-74.403,59.103-134.719,132.009-134.719c72.903,0,132.007,60.317,132.007,134.719
						C915.914,681.833,856.809,742.148,783.906,742.148z"/>
				</g>
				<g id="g112">
					<path id="path114" inkscape:connector-curvature="0" fill="#FFFFFF" d="M794.13,452.063c91.318,0,165.35,74.031,165.35,165.351
						c0,42.247-15.855,80.786-41.924,110.016c29.754-29.899,48.15-71.118,48.15-116.636c0-91.316-74.031-165.347-165.35-165.347
						c-49.069,0-93.14,21.384-123.421,55.334C706.878,470.69,748.327,452.063,794.13,452.063z"/>
				</g>
			</g>
		</g>
	</g>
	<g id="g126">
	</g>
</g>
</svg>
