<?xml version="1.0" encoding="UTF-8" standalone="no"?>
<svg
   xmlns:dc="http://purl.org/dc/elements/1.1/"
   xmlns:cc="http://creativecommons.org/ns#"
   xmlns:rdf="http://www.w3.org/1999/02/22-rdf-syntax-ns#"
   xmlns:svg="http://www.w3.org/2000/svg"
   xmlns="http://www.w3.org/2000/svg"
   xmlns:sodipodi="http://sodipodi.sourceforge.net/DTD/sodipodi-0.dtd"
   xmlns:inkscape="http://www.inkscape.org/namespaces/inkscape"
   id="svg2"
   height="600pt"
   width="998pt"
   version="1.1"
   viewBox="0 0 998 600"
   inkscape:version="0.91 r13725"
   sodipodi:docname="cow.svg">
  <defs
     id="defs38" />
  <sodipodi:namedview
     pagecolor="#ffffff"
     bordercolor="#666666"
     borderopacity="1"
     objecttolerance="10"
     gridtolerance="10"
     guidetolerance="10"
     inkscape:pageopacity="0"
     inkscape:pageshadow="2"
     inkscape:window-width="1186"
     inkscape:window-height="1138"
     id="namedview36"
     showgrid="false"
     inkscape:zoom="0.89001173"
     inkscape:cx="361.88589"
     inkscape:cy="438.61895"
     inkscape:window-x="725"
     inkscape:window-y="0"
     inkscape:window-maximized="0"
     inkscape:current-layer="svg2" />
  <metadata
     id="metadata64">
    <rdf:RDF>
      <cc:Work
         rdf:about="">
        <dc:format>image/svg+xml</dc:format>
        <dc:type
           rdf:resource="http://purl.org/dc/dcmitype/StillImage" />
        <dc:title />
      </cc:Work>
    </rdf:RDF>
  </metadata>
  <g
     fill="#fdf2de"
     id="g5">
    <path
       id="path6"
       d="m880.31 27.3c13.45-6.71 26.91-14.39 36.5-26.26-2.13 11.57-7.24 22.33-13.77 32.05 11.47-3.7 23.92-6.11 35.8-2.91 10.68 2.9 19.18 10.79 25.39 19.67 4.5 6.57 11.05 11.61 18.39 14.63 4.34 1.76 9.11 1.54 13.7 1.75-12.15 11.59-25.23 22.17-37.6 33.53-2.83 2.64-5.9 5.15-9.58 6.48-12.48 4.58-26.18 6.49-39.31 3.94-7.35-1.39-13.77-5.34-20.5-8.35-0.17-0.34-0.51-1.02-0.67-1.35-7.53 0.15-15.05-0.31-22.58-0.29-5.35-13.79-11.17-28.43-8.45-43.52 1.96-12.87 11.21-23.69 22.68-29.37z" />
    <path
       id="path8"
       d="m123.37 47.36c2.21-1.16 5.29-0.7 6.87 1.32 1.58 1.9 2.65 4.15 3.82 6.32 3.73 7.27 8.44 14.02 13.87 20.11 4.29 4.85 9.66 8.52 14.79 12.41-12.9 2.25-25.87 4.21-38.73 6.72-2.72-13.23-3.38-26.78-2.92-40.25 0.22-2.3 0.26-5.11 2.3-6.63z" />
    <path
       id="path10"
       d="m325.76 47.74c2.18-1.52 6.07-1.48 7.29 1.25 0.92 2.35 0.56 4.94 0.56 7.41-0.44 7.44-0.47 14.9-0.64 22.35-0.13 3.86-0.52 7.71-1.26 11.49-0.25 1.33-0.52 2.65-0.77 3.98-13.18-2.49-26.47-4.34-39.66-6.81 4.38-2.34 8.4-5.28 12.11-8.57 1.0938-1.0862 2.1954-2.0486 3.23-3.17 5.84-6.37 10.75-13.59 14.66-21.3 1.29-2.32 2.39-4.89 4.48-6.63z" />
  </g>
  <path
     id="path12"
     fill="#b58866"
     d="m1.6462 53.36c15.547-2.086 31.819-1.745 46.621 3.921 21.518 8.0623 38.646 24.688 51.927 42.959 7.2901-2.186 14.459-4.7932 21.79-6.8389 12.949-2.517 26.009-4.4824 38.998-6.7386 20.884-1.5543 41.828-2.2663 62.752-3.0885 15.627-0.08022 31.235 0.99274 46.862 1.1432 8.8763-0.56179 3.5472 2.4819 3.5472 2.4819-2.175 0.58161-5.067 1.253-7.2628 1.9102-13.11 30.765-15.265 65.591-8.6898 98.181 4.4103 19.724 11.862 39.409 25.284 54.862 8.7804 10.589 16.191 22.492 27.026 31.226 27.982 24.999 65.46 39.088 103.05 38.667-0.0403-2.8178-0.0705-5.6356-0.17118-8.4433 0.87603 15.493-0.21145 31.016-0.14097 46.529-0.0403 5.5353-0.19131 11.061-0.27187 16.596-0.41284 10.268-2.5374 20.366-4.1385 30.494-14.087-13.768-30.963-24.458-48.816-32.7-23.351-10.579-48.363-17.528-73.828-20.667-12.063-1.6746-24.277-1.6546-36.42-2.3866-11.731-0.52144-23.461-1.4741-35.202-0.87241-29.291-0.2908-58.633 3.249-86.918 10.89-31.033 8.4935-60.989 23.094-84.078 45.776-1.5809-7.3503-2.6784-14.811-3.4135-22.282-1.8729-23.375-2.6986-46.869-1.2385-70.284 1.46-23.846 4.2794-47.642 9.0724-71.056 3.4739-16.716 8.3474-33.111 13.724-49.306-16.751-8.41-32.539-19.38-44.29-34.09-12.164-14.95-16.142-33.19-19.611-52.879l0.1131-15.886c0.66457-9.5263 1.6347-18.82 3.7191-28.125z" />
  <path
     id="path14"
     fill="#87654a"
     d="m401.92 58.84c15.34-6.19 32.33-6.7 48.54-4.55 1.22 8.16 2.44 16.32 3.72 24.47 0.61 3.81 0.92 7.66 0.94 11.52 0.08 18.06-4.52 36.3-14.3 51.58-11.67 19.2-30.28 33.02-50.05 43.04 2.05 6.62 3.99 13.27 6.15 19.86 2.23 7.18 4.08 14.47 5.74 21.8 5.83 25.39 9.27 51.3 10.72 77.3 0.1 2.8 0.13 5.61 0.17 8.42-37.33 0.42-71.054-6.3207-98.844-31.251-10.76-8.71-21.934-24.394-30.654-34.954-13.33-15.41-21.366-36.629-25.746-56.299-6.53-32.5-7.568-66.594 5.452-97.274 0.73-2 6.1714-6.3324 8.3314-6.9124 6.41 0.4 12.83 0.9 19.19 1.82 13.19 2.47 26.48 4.32 39.66 6.81 7.33 2.05 14.48 4.68 21.77 6.86 2.9-3.63 5.85-7.23 8.81-10.81 3.27-3.99 6.56-7.99 10.36-11.49 8.79-8.29 18.91-15.2 30.04-19.94z" />
  <g
     fill="#f0c20b"
     id="g12">
    <path
       id="path16"
       d="m282.83 80.88c4.33-0.73 8.68-1.37 13.04-1.91 2.5-0.19 6.7587-1.8437 9.2687-1.8137-3.26 3.487-9.03 8.223-13.86 10.254-6.36-0.92-12.78-1.42-19.19-1.82l-0.51-0.01c3.67-1.71 7.17-4.04 11.25-4.7z" />
    <path
       id="path18"
       d="m332.97 78.75c12.97 0.01 25.94-0.04 38.91 0.03-3.8 3.5-7.09 7.5-10.36 11.49-9.94-0.03-19.87 0.01-29.81-0.03 0.74-3.78 1.13-7.63 1.26-11.49z" />
    <path
       id="path20"
       d="m454.18 78.76c115.29-0.03 230.59-0.01 345.88-0.01 6.26 0.34 12.52 1.25 18.63 2.63 6.01 2.48 12.52 4.97 16.6 10.32 5.68 7.08 7.54 16.42 7.72 25.3-0.01 28.21-0.02 56.42 0 84.63-0.02 11.8-0.01 23.6-0.01 35.39 0 80.68-0.01 161.35 0.01 242.02-0.14 10.02-2.46 20.84-9.93 28.05-7.17 7.6-17.84 10.94-28.08 10.95-42.14-0.09-84.28-0.02-126.42-0.04h-39.07-162.51-126.41-39.08c-10.48-0.36-21.34 1.32-31.41-2.41-9.99-3.25-18.08-11.46-21.13-21.52 10.41-0.71 20.89-1.1 31.12-3.38l1.8-0.3c-3.71 4.39-7.98 8.26-11.93 12.44 4.66 2.34 9.78 3.74 15.02 3.66 167.35-0.02 334.7-0.03 502.05 0 7.73 0.31 15.7 0 22.79-3.47-65.93-67.68-132.2-135.04-198.17-202.67-8.67 8.44-17.36 16.86-26.07 25.27-8.15 7.97-16.28 16.48-27.01 20.95-8.23 3.92-17.58 3.56-26.43 3.02-11.45-1.47-21.55-8.13-29.71-15.98-11.46-11.05-22.87-22.15-34.3-33.22-21.76 22.1-43.28 44.44-65.16 66.42 0.08-5.52 0.23-11.03 0.27-16.55 19.02-19.18 37.91-38.51 56.71-57.91-22.55-21.81-44.61-44.12-67.29-65.79-1.66-7.33-3.51-14.62-5.74-21.8 37.3 36.48 74.29 73.29 111.87 109.5 8.11 7.99 16.34 16.34 26.88 21.07 9.87 4.53 21.88 3.94 31.33-1.39 7.54-4.09 14-9.87 20.06-15.87 52.53-50.77 104.32-102.3 156.55-153.39 22.15-21.89 44.43-43.65 66.61-65.51 2.09-2.05 4.27-4.05 5.98-6.44-7.64-1.57-15.4-2.79-23.22-2.5-112.62 0.08-225.24-0.02-337.86 0.05-0.02-3.86-0.33-7.71-0.94-11.52z" />
  </g>
  <path
     id="path22"
     d="m15 83.87c16.7 1.37 33.46 7.63 45.42 19.65 10.32 9.64 17.46 22.18 22.4 35.3-5.44 12.17-10.47 24.51-15.62 36.8-18.53-9.82-35.24-24.38-44.12-43.7-7.09-14.88-9.18-31.72-8.08-48.05z"
     fill="#fdf2de" />
  <path
     id="path24"
     d="m403.31 96.24c10.83-7.32 23.71-11.25 36.67-12.36 1.29 17.77-1.43 36.22-10.14 51.94-9.21 17.46-24.88 30.59-42.04 39.83-5.22-11.78-10.19-23.67-15.07-35.59-1.1-2.08 0.52-4.17 1.17-6.12 6.25-14.83 15.83-28.72 29.41-37.7z"
     fill="#fdf2de" />
  <path
     id="path26"
     d="m331.71 90.24c9.94 0.04 19.87 0 29.81 0.03-2.96 3.58-5.91 7.18-8.81 10.81-7.29-2.18-14.44-4.81-21.77-6.86 0.25-1.33 0.52-2.65 0.77-3.98z"
     fill="#fcfba4" />
  <path
     id="path28"
     d="m455.12 90.28c112.62-0.07 225.24 0.03 337.86-0.05 7.82-0.29 15.58 0.93 23.22 2.5-1.71 2.39-3.89 4.39-5.98 6.44-22.18 21.86-44.46 43.62-66.61 65.51-52.23 51.09-104.02 102.62-156.55 153.39-6.06 6-12.52 11.78-20.06 15.87-9.45 5.33-21.46 5.92-31.33 1.39-10.54-4.73-18.77-13.08-26.88-21.07-37.58-36.21-74.57-73.02-111.87-109.5-2.16-6.59-4.1-13.24-6.15-19.86 19.77-10.02 38.38-23.84 50.05-43.04 9.78-15.28 14.38-33.52 14.3-51.58z"
     fill="#fcfba4" />
  <path
     id="path30"
     d="m779.9 144.94c15.45-15.15 30.74-30.47 46.39-45.41 3.95 5.67 5.3 12.66 5.2 19.48-0.03 117.65-0.02 235.3-0.01 352.96 0.18 7.79 0.03 15.9-3.52 23.04-50.02-51.28-100.21-102.4-150.28-153.63-15.89-16.44-32.18-32.49-47.85-49.14 50.2-48.92 99.99-98.25 150.07-147.3z"
     fill="#fce15c" />
  <path
     id="path32"
     d="m866.08 100.19c7.53-0.02 15.05 0.44 22.58 0.29 0.16 0.33 0.5 1.01 0.67 1.35 6.7 13.72 12.66 27.84 17.45 42.36 5.37 17.13 9.9 35.23 7.38 53.28-1.66 12.29-8.4 24.05-19.17 30.5-15.48 9.53-34.38 9.95-51.99 9.05 0-11.79-0.01-23.59 0.01-35.39 10.52-0.1 21.84-3.43 28.53-12.04 7.16-9.49 8.53-22.01 7.74-33.53-1.49-19.16-6.63-37.87-13.2-55.87z"
     fill="#87654a" />
  <path
     id="path34"
     fill="#fdf2de"
     d="m150.69 195.18c3.06 0.09 7.28-1.25 9.21 1.97 0.94 1.65 2.21 3.87 1.18 5.72-2.44 0.67-5.21 2.12-7.67 0.77-2.3-1.14-3.03-3.88-3.17-6.25 0.11-0.55 0.34-1.66 0.45-2.21z" />
  <path
     id="path36"
     d="m309.75 195.46c2.63-0.19 5.41-0.99 7.98-0.05 2.73 1.34 3.17 4.67 3.71 7.34-2.85 0.57-6.13 2.52-8.84 0.56-2.59-1.67-2.34-5.19-2.85-7.85z"
     fill="#fdf2de" />
  <path
     id="path38"
     fill="#5b3721"
     d="m133.53 203.59c1.97-6.95 10.25-8.82 16.57-7.95l0.14 1.75c0.14 2.37 0.87 5.11 3.17 6.25 2.46 1.35 5.23-0.1 7.67-0.77l1.06-0.35c1.73 3.24 3.22 6.77 2.89 10.54-0.06 9.27-8.62 17.8-17.98 17.29-9.1-0.01-17.48-8.29-17.26-17.45 0.85-3.25 2.49-6.21 3.74-9.31z" />
  <path
     id="path40"
     d="m291.19 205.06c3.24-6.99 11.07-10.61 18.56-9.6 0.51 2.66 0.26 6.18 2.85 7.85 2.71 1.96 5.99 0.01 8.84-0.56 1.29 4.62 4.12 9.36 2.56 14.28-1.92 8.68-11.22 14.93-19.99 13.07-10.95-1.76-18.17-15.09-12.82-25.04z"
     fill="#5b3721" />
  <path
     id="path42"
     d="m402.66 226.56c22.68 21.67 44.74 43.98 67.29 65.79-18.8 19.4-37.69 38.73-56.71 57.91-0.07-15.47 1.01-30.95 0.14-46.4-1.45-26-4.89-51.91-10.72-77.3z"
     fill="#fce15c" />
  <path
     id="path44"
     d="m412.97 366.81c21.88-21.98 43.4-44.32 65.16-66.42 11.43 11.07 22.84 22.17 34.3 33.22 8.16 7.85 18.26 14.51 29.71 15.98 8.85 0.54 18.2 0.9 26.43-3.02 10.73-4.47 18.86-12.98 27.01-20.95 8.71-8.41 17.4-16.83 26.07-25.27 65.97 67.63 132.24 134.99 198.17 202.67-7.09 3.47-15.06 3.78-22.79 3.47-167.35-0.03-334.7-0.02-502.05 0-5.24 0.08-10.36-1.32-15.02-3.66 3.95-4.18 8.22-8.05 11.93-12.44l-1.8 0.3c30.43-6.2 61.05-17.01 84.59-37.96 16.39-14.71 29.19-33.89 34.18-55.51 1.59-10.1 3.7-20.17 4.11-30.41z"
     fill="#fce15c" />
  <path
     id="path46"
     fill="#fdf2de"
     d="m129.61 351.61c28.09-7.62 57.23-11.15 86.32-10.86 11.66-0.6 23.31 0.35 34.96 0.87 12.06 0.73 24.19 0.71 36.17 2.38 25.29 3.13 50.13 10.06 73.32 20.61 17.73 8.22 34.49 18.88 48.48 32.61-4.99 21.62-17.79 40.8-34.18 55.51-23.54 20.95-54.16 31.76-84.59 37.96-10.23 2.28-20.71 2.67-31.12 3.38-6.12 0.32-12.2 0.97-18.29 1.55-19.91 2.02-39.93-0.09-59.68-2.59-27.51-3.72-55.01-10.78-79.2-24.77-18.44-10.56-34.37-25.73-44.96-44.22-5.18-8.2-8.09-17.53-10.73-26.78 22.93-22.62 52.68-37.18 83.5-45.65z" />
  <path
     id="path48"
     d="m141.4 399.49c5.53-1.46 12.03-1.25 16.68 2.47 3.86 3.19 6.89 7.87 6.9 13.02 0.06 8.36 0 16.73 0.02 25.09 0.38 9.78-9.28 18.53-18.94 17.45-5.07-0.34-10.63-3.07-12.39-8.14-1.53-4.05-4.31-7.87-3.95-12.38 0.05-7.02 0.02-14.03 0.02-21.04-0.23-7.22 4.85-14.19 11.66-16.47z"
     fill="#5b3721" />
  <path
     id="path50"
     d="m301.35 399.53c5.76-1.62 12.57-1.19 17.35 2.73 3.69 3.19 6.53 7.76 6.54 12.77 0.04 7.65 0.01 15.31 0.01 22.96 0.16 2.54-1.28 4.73-2.23 6.98-1.21 2.49-1.99 5.19-3.42 7.58-4.47 4.92-12.11 6.3-18.22 3.96-6.07-2.71-11.36-8.53-11.35-15.48-0.09-8.33 0-16.66-0.04-24.98-0.27-7.16 4.72-14.07 11.36-16.52z"
     fill="#5b3721" />
  <path
     id="path52"
     d="m311.51 518h39.08c-0.17 20.05-0.04 40.11-0.08 60.16 5.49 3.31 11.09 6.43 16.45 9.93-20.09-1.47-39.03-9.96-55.46-21.29 0.01-16.26-0.01-32.53 0.01-48.8z"
     fill="#87654a" />
  <path
     id="path54"
     d="m 349.4408,517.97191 127.5592,0 0,60.24066 c -10.48446,7.15245 -21.88718,13.04447 -33.99628,16.98582 -15.85282,5.10175 -33.15872,6.24214 -49.42528,2.41083 -9.29372,-2.921 -18.35536,-5.86641 -27.61881,-8.88745 -5.40873,-3.5012 -11.05965,-6.14541 -16.59955,-9.45654 0.0404,-20.05688 -0.0908,-41.23614 0.0807,-61.29302 z"
     inkscape:connector-curvature="0"
     style="fill:#b58866" />
  <path
     id="path56"
     d="m639.51 518h39.07c-0.13 20.07-0.06 40.14-0.05 60.2 5.52 3.27 11.1 6.44 16.5 9.9-20.13-1.48-39.13-9.94-55.56-21.35 0.07-16.25 0-32.5 0.04-48.75z"
     fill="#87654a" />
  <path
     id="path58"
     fill="#b58866"
     d="m677.91 518c42.365 0.02 84.729-0.05 127.09 0.04 0 20.06-0.01 40.12 0 60.17-18.84 12.86-41.138 22.19-64.321 21.6-16.125 0.03-31.839-0.72511-46.235-7.6651-5.4288-3.46-11.039-8.203-16.588-11.473-0.01-20.06-0.0804-42.602 0.0503-62.672z" />
</svg>
